<svg fill="none" height="15" viewBox="0 0 14 15" width="14" xmlns="http://www.w3.org/2000/svg" xmlns:xlink="http://www.w3.org/1999/xlink"><clipPath id="a"><path d="m0 .442871h14v14h-14z"/></clipPath><g clip-path="url(#a)"><path d="m6.15012.997909c-.0603-.036019-.12923-.055038-.19946-.055038-.07024 0-.13917.019019-.19947.055038-.04973.039411-.08329.095691-.09432.158181s.00124.12685.03449.18091c1.22669 2.12427 1.48599 5.01648-.18949 6.61218-.64464-.54172-1.15642-1.22409-1.49597-1.99462-.61961.34412-1.1331.8514-1.48474 1.46677s-.52798 1.3153-.50989 2.02382c.02529.62465.17526 1.23785.44108 1.80365s.64213 1.0726 1.10677 1.4908 1.00823.7392 1.59878.9442c.59055.2049 1.21613.2897 1.83994.2493 3.21136 0 4.87686-1.9946 4.98656-4.48795.1296-2.99194-1.99462-6.67202-5.83428-8.447241z" stroke="#000" stroke-linecap="round" stroke-linejoin="round"/></g></svg>