<svg fill="none" height="24" viewBox="0 0 24 24" width="24" xmlns="http://www.w3.org/2000/svg"><g stroke="#1c274c" stroke-linecap="round" stroke-width="1.5"><path d="m9.53589 3.90909c0-1.05436.95091-1.90909 2.12401-1.90909 1.173 0 2.124.85473 2.124 1.90909 0 .49623-.1793.94824-.4914 1.28773-.5977.65024-1.491 1.30515-1.491 2.14863v.28445m0 0c.7315-.0085 1.4659.19468 2.083.61066l1.0578.71304m-3.1408-1.3237c-.7255.00844-1.4481.22507-2.0505.64882l-7.09569 4.99128c-1.27209.8948-.5681 2.73 1.04723 2.73h2.29746m12 0h2.2975c1.633 0 2.3259-1.8685 1.0195-2.7491l-2.317-1.5619"/><path d="m14 22h-4c-1.88562 0-2.82843 0-3.41421-.5858-.58579-.5858-.58579-1.5286-.58579-3.4142s0-2.8284.58579-3.4142c.58578-.5858 1.52859-.5858 3.41421-.5858h4c1.8856 0 2.8284 0 3.4142.5858s.5858 1.5286.5858 3.4142 0 2.8284-.5858 3.4142"/></g></svg>