<svg height="24" viewBox="0 0 24 24" width="24" xmlns="http://www.w3.org/2000/svg"><path d="m3 12.2928932v-.2928932c0-4.97056275 4.02943725-9 9-9 4.9705627 0 9 4.02943725 9 9 0 4.9705627-4.0294373 9-9 9-2.16905432 0-4.2204448-.7705955-5.83719244-2.1494414-.7043049-.6006677-1.31313092-1.3066139-1.80318356-2.0918511-.14620053-.2342649-.0748103-.542693.15945455-.6888935.23426484-.1462006.54269296-.0748103.68889349.1594545.43575209.6982287.97728456 1.3261466 1.60374271 1.8604225 1.43742896 1.2259137 3.25934725 1.910309 5.18828525 1.910309 4.418278 0 8-3.581722 8-8s-3.581722-8-8-8-8 3.581722-8 8v.2928932l1.14644661-1.1464466c.19526215-.1952621.51184463-.1952621.70710678 0 .19526215.1952622.19526215.5118446 0 .7071068l-2 2c-.19526215.1952621-.51184463.1952621-.70710678 0l-2-2c-.19526215-.1952622-.19526215-.5118446 0-.7071068.19526215-.1952621.51184463-.1952621.70710678 0zm12.6969596.7475343c.2538149.1087778.3713907.4027173.2626129.6565321-.1087778.2538149-.4027173.3713907-.6565321.2626129l-3.5-1.5c-.1312713-.0562591-.2322187-.1659687-.277382-.3014586l-1.5-4.50000002c-.08732394-.26197166.0542561-.54513164.3162277-.63245553.2619717-.08732389.5451317.05425611.6324555.31622777l1.4289965 4.28698928z"/></svg>