<svg fill="none" height="24" viewBox="0 0 24 24" width="24" xmlns="http://www.w3.org/2000/svg"><g fill="#292d32"><path d="m14.7701 19.7498h-5.50998c-.44 0-1-.05-1.37-.43-.36-.37-.35-.83-.34-1.14v-.89c-2.52-1.68-4.18-4.6-4.18-7.38 0-2.63 1.18-5.09 3.23-6.74s4.73998-2.269997 7.36998-1.69c2.5.55 4.66 2.22 5.78 4.47 2.17 4.37.08 9.1-3.26 11.35v.75c.01.29.02.82-.39 1.24-.31.3-.75.46-1.33.46zm-5.72998-1.51c.05 0 .12.01.21.01h5.51998c.1 0 .17-.01.21-.02 0-.03 0-.07 0-.1v-1.26c0-.26.14-.51.36-.64 2.96-1.79 4.92-5.88 3.05-9.63-.92-1.85-2.7-3.22-4.76-3.67-2.18-.48-4.40998.03-6.10998 1.4s-2.67 3.4-2.67 5.58c0 2.78 1.92 5.18 3.82 6.33.23.14.36.38.36.64v1.35c.01 0 .01 0 .01.01z"/><path d="m15.5003 22.7499c-.07 0-.14-.01-.21-.03-2.16-.62-4.43-.62-6.59005 0-.4.11-.81-.12-.93-.52s.12-.81.52-.93c2.42005-.69 4.99005-.69 7.41005 0 .4.11.63.53.52.93-.09.34-.39.55-.72.55z"/></g></svg>